<?xml version="1.0" encoding="utf-8"?>
<!-- Generator: Adobe Illustrator 18.0.0, SVG Export Plug-In . SVG Version: 6.00 Build 0)  -->
<!DOCTYPE svg PUBLIC "-//W3C//DTD SVG 1.1//EN" "http://www.w3.org/Graphics/SVG/1.1/DTD/svg11.dtd">
<svg version="1.1" id="Layer_1" xmlns="http://www.w3.org/2000/svg" xmlns:xlink="http://www.w3.org/1999/xlink" x="0px" y="0px"
	 width="152.2px" height="27.7px" viewBox="0 0 152.2 27.7" style="enable-background:new 0 0 152.2 27.7;" xml:space="preserve">
<style type="text/css">
	.st0{fill:#FFCE33;}
	.st1{fill:#F44040;}
	.st2{fill:#353535;}
</style>
<g>
	<path class="st0" d="M2.3,7.8c1.8-0.7,4.2-1.1,6.7-1.1c2.6,0,4.9,0.4,6.8,1.1C16.5,7.5,17,7.1,17,6.7c0-1.3-3.5-2.3-7.9-2.3
		c-4.4,0-7.9,1-7.9,2.3C1.1,7.1,1.5,7.5,2.3,7.8z"/>
	<g>
		<path class="st1" d="M16.9,8.5c-0.6,0.3-1.1,0.6-1.8,0.8c-0.2,0.1-0.4,0.1-0.7,0.2c-0.4,0.1-0.7,0.5-0.7,0.9c0,0.4,0,0.7,0,0.7
			c0,0.5-0.4,0.9-0.9,0.9c-0.5,0-0.9-0.4-0.9-0.9v-0.6c0-0.3-0.4-0.5-0.8-0.5c-0.1,0-0.2,0-0.3,0c-0.4,0-0.8,0.4-0.8,0.8V17
			c0,0.6-0.5,1.2-1.2,1.2c-0.6,0-1.2-0.5-1.2-1.2v-6.1c0-0.4-0.4-0.8-0.9-0.9c-0.1,0-0.1,0-0.2,0c-0.4,0-0.8,0.2-0.8,0.5
			c0,0.3,0,0.6,0,0.6c0,0.5-0.4,0.9-0.9,0.9c-0.5,0-0.9-0.4-0.9-0.9v-0.8c0-0.4-0.3-0.8-0.5-0.9C3.2,9.4,3,9.4,2.8,9.3
			C2.1,9.1,1.6,8.9,1,8.6l1.8,11.8c0,2,1.8,3.7,6.2,3.7c4.3,0,6.2-1.7,6.2-3.7C15.1,20.3,16.9,8.5,16.9,8.5z"/>
	</g>
</g>
<g>
	<g>
		<path class="st1" d="M100.3,10c0-1.2-0.7-2.2-1.7-2.6c-1-0.6-2.1-0.7-3.6-0.7c-0.8,0-1.5,0-2.2,0.1c-0.9,0.1-1.7,0.9-1.9,1.8
			l-1.4,7.4c-0.1,0.6,0.3,0.9,0.8,0.7l1.2-0.4c0.6-0.2,1.1-0.6,1.1-0.9l0.1-0.5h1c1.4,0,2.9,0.4,2.6,1.8C95.8,19.3,90,21,90,21
			c-2.2,0.8,4,1.2,7.6-1c1.2-0.7,2-1.9,2-3.4c0-1.6-0.4-2.7-2.2-3.1v-0.1C99.2,12.9,100.3,11.8,100.3,10z M94.3,12.4h-1L93.9,9
			c0.2,0,0.7-0.1,1.2-0.1c1.2,0,2,0.4,2,1.5C97.1,11.6,96,12.4,94.3,12.4z"/>
		<path class="st2" d="M30.9,9.3h-2.3c-0.8,0-1.3-0.7-1.2-1.5l0,0c0.1-0.6,0.6-0.9,1.2-0.9h8.2c0.8,0,1.3,0.7,1.2,1.5l0,0
			c-0.1,0.6-0.6,1-1.2,1H34l-2,10.3c-0.1,0.7-0.8,1.2-1.5,1.2l0,0c-0.9,0-1.7-0.9-1.5-1.8L30.9,9.3z"/>
		<path class="st2" d="M37.6,19l2.3-12.1c0.1-0.7,0.8-1.2,1.5-1.2l0,0c0.9,0,1.7,0.9,1.5,1.8L42,11.8h0c0.9-0.6,2-1.5,3.3-1.5
			c1.6,0,2.6,1.1,2.6,2.9c0,0.5-0.1,1.2-0.2,1.8l-0.9,4.7c-0.1,0.7-0.8,1.2-1.5,1.2l0,0c-0.9,0-1.7-0.9-1.5-1.8l0.7-3.8
			c0.1-0.4,0.1-0.8,0.1-1.2c0-0.7-0.3-1.2-1-1.2c-1.1,0-2.2,1.2-2.6,3.3l-0.7,3.5c-0.1,0.7-0.8,1.2-1.5,1.2h0
			C38.1,20.8,37.4,20,37.6,19z"/>
		<path class="st2" d="M57.9,19.7c0,0.5-0.2,1-0.7,1.1c-1,0.4-2.2,0.5-3.1,0.5c-3,0-4.5-1.7-4.5-4.4c0-3.2,2.3-6.5,6.1-6.5
			c2.1,0,3.6,1.2,3.6,3.1c0,2.6-2.6,3.6-6.8,3.5c0,0.3,0.1,0.8,0.3,1.1c0.4,0.5,1.1,0.8,2,0.8c0.6,0,1.2-0.1,1.7-0.2
			C57.2,18.5,57.9,19,57.9,19.7L57.9,19.7z M55.3,12.6c-1.4,0-2.3,1.2-2.5,2.2c2.4,0,3.6-0.3,3.6-1.3C56.4,13,56,12.6,55.3,12.6z"/>
		<path class="st2" d="M61.7,20.8c-0.9,0-1.6-0.8-1.4-1.7l1-5.2c0.2-0.9,0.3-1.5,0.4-2.2c0.1-0.6,0.7-1.1,1.3-1.1h0
			c0.8,0,1.4,0.7,1.3,1.5l0,0.4h0c1-1.2,2.2-2,3.6-2c1.7,0,2.4,1.1,2.5,2c0.9-1.3,2.2-2,3.6-2c1.6,0,2.5,1,2.5,2.8
			c0,0.4-0.1,1.1-0.2,1.7l-0.9,4.8c-0.1,0.7-0.7,1.2-1.4,1.2h0c-0.9,0-1.6-0.8-1.4-1.7l0.7-3.9c0.1-0.4,0.1-0.8,0.1-1.2
			c0-0.7-0.3-1.2-1-1.2c-1,0-2.1,1.3-2.5,3.4l-0.7,3.4c-0.1,0.7-0.7,1.2-1.4,1.2l0,0c-0.9,0-1.6-0.8-1.4-1.7l0.8-3.9
			c0.1-0.4,0.1-0.8,0.1-1.1c0-0.7-0.2-1.2-1-1.2c-1,0-2.2,1.3-2.5,3.4l-0.6,3.4C63,20.3,62.4,20.8,61.7,20.8L61.7,20.8z"/>
		<path class="st2" d="M93.5,17.7c-5.2,3.1-8.2,3.6-10.9,3.6c-3,0-4.5-1.7-4.5-4.4c0-3.2,2.3-6.5,6.1-6.5c2.1,0,3.6,1.2,3.6,3.1
			c0,2.6-2.6,3.6-6.8,3.5c0,0.3,0.2,0.7,0.3,1.1c1,1.8,6,1.4,12-1.3c0.5-0.2,0.9-0.3,1,0C94.5,17.1,94,17.4,93.5,17.7z M83.8,12.6
			c-1.4,0-2.3,1.2-2.5,2.2c2.4,0,3.6-0.3,3.6-1.3C84.9,13,84.5,12.6,83.8,12.6z"/>
		<path class="st1" d="M120,19.9c0,0.5-0.3,1-0.8,1.1c-0.6,0.2-1.3,0.3-2.1,0.3c-2.6,0-4.4-1.6-4.4-4.3c0-3.7,2.8-6.6,6.8-6.6
			c0.3,0,0.5,0,0.8,0c0.7,0.1,1.2,0.8,1,1.5l0,0.1c-0.2,0.5-0.7,0.9-1.2,0.8c-0.2,0-0.3,0-0.5,0c-2.2,0-3.5,1.9-3.5,3.8
			c0,1.4,0.9,2.2,2.1,2.2c0.3,0,0.5,0,0.7-0.1C119.4,18.7,120,19.2,120,19.9L120,19.9z"/>
		<path class="st1" d="M121.9,19l2.3-12.1c0.1-0.7,0.8-1.2,1.5-1.2l0,0c0.9,0,1.7,0.9,1.5,1.8l-1.4,7.3h0c0.5-0.4,0.6-0.7,0.9-1.1
			l2.3-2.7c0.2-0.3,0.6-0.4,1-0.4l0,0c1.2,0,1.7,1.4,0.9,2.2l-2.1,2l1.9,3.9c0.5,1-0.2,2.2-1.4,2.2h-0.1c-0.6,0-1.1-0.4-1.4-0.9
			l-1.5-3.4l-1.2,1l-0.4,2.1c-0.1,0.7-0.8,1.2-1.5,1.2h0C122.5,20.8,121.8,20,121.9,19z"/>
		<path class="st1" d="M141.1,19.7c0,0.5-0.2,1-0.7,1.1c-1,0.4-2.2,0.5-3.1,0.5c-3,0-4.5-1.7-4.5-4.4c0-3.2,2.3-6.5,6.1-6.5
			c2.1,0,3.6,1.2,3.6,3.1c0,2.6-2.6,3.6-6.8,3.5c0,0.3,0.1,0.8,0.3,1.1c0.4,0.5,1.1,0.8,2,0.8c0.6,0,1.2-0.1,1.7-0.2
			C140.4,18.5,141,19,141.1,19.7L141.1,19.7z M138.4,12.6c-1.4,0-2.3,1.2-2.5,2.2c2.4,0,3.6-0.3,3.6-1.3
			C139.6,13,139.1,12.6,138.4,12.6z"/>
		<path class="st1" d="M148.6,10.1l-0.1,0.5h0.9c0.7,0,1.2,0.6,1.1,1.3l0,0.2c-0.1,0.5-0.6,0.9-1.1,0.9H148l-0.7,3.5
			c-0.1,0.4-0.2,1-0.2,1.3c0,0.5,0.2,0.9,0.9,0.9c0.3,0,0.6,0,0.8,0l-0.1,0.9c-0.1,1-1,1.8-2,1.8c0,0,0,0,0,0
			c-1.9,0-2.7-0.9-2.7-2.3c0-0.6,0.1-1.1,0.2-1.9L145,13l0,0c-0.7,0-1.2-0.6-1.1-1.3l0-0.2c0.1-0.5,0.6-0.9,1.1-0.9h0.4l0.2-1
			c0.1-0.6,0.5-1,1.1-1.1l0,0C147.8,8.1,148.8,9,148.6,10.1z"/>
		<path class="st1" d="M105.3,21.6c-1.3,0-2.4-0.5-3.2-1.4c-0.8-0.9-1.1-2.3-0.9-3.6l0.8-4.2c0.1-0.7,0.7-1.2,1.5-1.2h0
			c0.9,0,1.7,0.9,1.5,1.8l-0.8,4.1c-0.1,0.4,0,0.9,0.2,1.1c0.2,0.3,0.6,0.4,1,0.4c1,0,2.1-1,2.3-2.1l0.8-4.2
			c0.1-0.7,0.7-1.2,1.5-1.2l0,0c0.9,0,1.6,0.9,1.5,1.8l-0.8,4.1C110.1,19.5,107.8,21.6,105.3,21.6z"/>
	</g>
</g>
</svg>
